<svg width="101" height="29" viewBox="0 0 101 29" fill="none" xmlns="http://www.w3.org/2000/svg">
<path d="M100.122 25.6558C100.122 27.2013 98.8441 28.4531 97.2635 28.4531H3.71486C2.13496 28.4531 0.852539 27.2013 0.852539 25.6558V3.34831C0.852539 1.80359 2.13496 0.547363 3.71486 0.547363H97.2627C98.8441 0.547363 100.121 1.80359 100.121 3.34831L100.122 25.6558Z" fill="black"/>
<path d="M96.9619 0.58107C98.6833 0.58107 100.084 1.94679 100.084 3.62517V25.3752C100.084 27.0536 98.6833 28.4193 96.9619 28.4193H4.01288C2.29147 28.4193 0.890725 27.0536 0.890725 25.3752V3.62517C0.890725 1.94679 2.29147 0.58107 4.01288 0.58107H96.9619ZM96.9619 0.000163H4.01288C1.96893 0.000163 0.294922 1.63233 0.294922 3.62517V25.3752C0.294922 27.3681 1.96893 29.0002 4.01288 29.0002H96.9619C99.0058 29.0002 100.68 27.3681 100.68 25.3752V3.62517C100.68 1.63233 99.0058 0.000163 96.9619 0.000163Z" fill="#A6A6A6"/>
<path d="M22.6976 14.3432C22.6761 12.0065 24.66 10.8697 24.7507 10.8168C23.6271 9.21959 21.8856 9.00137 21.2736 8.98397C19.811 8.83389 18.3922 9.83729 17.6471 9.83729C16.8872 9.83729 15.7398 8.99847 14.5032 9.02312C12.912 9.04704 11.4233 9.94532 10.6068 11.3402C8.92184 14.1844 10.1785 18.364 11.7928 20.663C12.6004 21.7889 13.544 23.0461 14.7791 23.0019C15.9874 22.9533 16.4388 22.2508 17.897 22.2508C19.3418 22.2508 19.7656 23.0019 21.0253 22.9736C22.3221 22.9533 23.1386 21.8426 23.9179 20.7065C24.8511 19.416 25.2258 18.1451 25.2407 18.0798C25.2102 18.0697 22.7222 17.1439 22.6976 14.3432Z" fill="white"/>
<path d="M20.3181 7.47161C20.968 6.67919 21.4127 5.60111 21.2893 4.50708C20.3486 4.54768 19.1723 5.14146 18.4948 5.91648C17.8955 6.59944 17.3601 7.71884 17.4984 8.77154C18.5551 8.84839 19.64 8.25171 20.3181 7.47161Z" fill="white"/>
<path d="M40.1843 21.8407H38.4956L37.5706 19.0067H34.3553L33.4742 21.8407H31.8301L35.0156 12.1924H36.9832L40.1843 21.8407ZM37.2918 17.8177L36.4552 15.2983C36.3667 15.0409 36.2009 14.4348 35.9563 13.4807H35.9265C35.8291 13.8911 35.6722 14.4972 35.4566 15.2983L34.6349 17.8177H37.2918Z" fill="white"/>
<path d="M48.3774 18.2766C48.3774 19.4598 48.0495 20.395 47.3936 21.0816C46.8062 21.6928 46.0767 21.998 45.206 21.998C44.2661 21.998 43.5909 21.6688 43.1797 21.0105H43.1499V24.6754H41.5646V17.1738C41.5646 16.43 41.5445 15.6666 41.5059 14.8835H42.9001L42.9886 15.9863H43.0183C43.547 15.1554 44.3494 14.7407 45.4261 14.7407C46.2678 14.7407 46.9705 15.0648 47.5327 15.7137C48.0963 16.3633 48.3774 17.2173 48.3774 18.2766ZM46.7623 18.3331C46.7623 17.656 46.6062 17.0977 46.2924 16.6584C45.9496 16.2002 45.4893 15.9711 44.9123 15.9711C44.5211 15.9711 44.1657 16.0987 43.8482 16.3502C43.5299 16.604 43.3217 16.9353 43.2243 17.3457C43.1752 17.5371 43.1507 17.6937 43.1507 17.8169V18.9769C43.1507 19.483 43.3098 19.91 43.6281 20.2587C43.9463 20.6074 44.3598 20.7814 44.8684 20.7814C45.4655 20.7814 45.9302 20.5567 46.2626 20.1086C46.5957 19.6599 46.7623 19.0683 46.7623 18.3331Z" fill="white"/>
<path d="M56.5837 18.2766C56.5837 19.4598 56.2558 20.395 55.5992 21.0816C55.0125 21.6928 54.283 21.998 53.4123 21.998C52.4724 21.998 51.7972 21.6688 51.3867 21.0105H51.357V24.6754H49.7716V17.1738C49.7716 16.43 49.7516 15.6666 49.7129 14.8835H51.1071L51.1956 15.9863H51.2254C51.7533 15.1554 52.5556 14.7407 53.6331 14.7407C54.4741 14.7407 55.1768 15.0648 55.7404 15.7137C56.3019 16.3633 56.5837 17.2173 56.5837 18.2766ZM54.9686 18.3331C54.9686 17.656 54.8117 17.0977 54.4979 16.6584C54.1551 16.2002 53.6963 15.9711 53.1185 15.9711C52.7267 15.9711 52.372 16.0987 52.0537 16.3502C51.7355 16.604 51.528 16.9353 51.4306 17.3457C51.3823 17.5371 51.357 17.6937 51.357 17.8169V18.9769C51.357 19.483 51.5161 19.91 51.8329 20.2587C52.1511 20.6067 52.5646 20.7814 53.0747 20.7814C53.6718 20.7814 54.1365 20.5567 54.4689 20.1086C54.802 19.6599 54.9686 19.0683 54.9686 18.3331Z" fill="white"/>
<path d="M65.7592 19.135C65.7592 19.9557 65.467 20.6235 64.8803 21.1389C64.2356 21.7023 63.3381 21.9836 62.1848 21.9836C61.1199 21.9836 60.2663 21.7835 59.6201 21.3825L59.9875 20.0942C60.6835 20.5045 61.4471 20.7105 62.2792 20.7105C62.8763 20.7105 63.3411 20.5785 63.6749 20.316C64.0073 20.0536 64.1731 19.7012 64.1731 19.2619C64.1731 18.8704 64.0363 18.5405 63.7619 18.273C63.489 18.0055 63.0332 17.7568 62.3967 17.527C60.6641 16.8969 59.7986 15.974 59.7986 14.7604C59.7986 13.9672 60.102 13.3169 60.7095 12.8108C61.3148 12.3041 62.1223 12.051 63.1321 12.051C64.0326 12.051 64.7806 12.204 65.3778 12.5092L64.9814 13.7693C64.4237 13.4735 63.7932 13.3256 63.0875 13.3256C62.5298 13.3256 62.0941 13.4597 61.7817 13.7265C61.5178 13.965 61.3854 14.2558 61.3854 14.6001C61.3854 14.9815 61.5364 15.2969 61.8397 15.5448C62.1037 15.7739 62.5833 16.0219 63.2793 16.2894C64.1307 16.6236 64.7561 17.0144 65.1584 17.4624C65.5592 17.909 65.7592 18.468 65.7592 19.135Z" fill="white"/>
<path d="M71.0008 16.0434H69.2534V19.4212C69.2534 20.2803 69.5612 20.7095 70.1784 20.7095C70.4617 20.7095 70.6967 20.6856 70.8826 20.6377L70.9265 21.8115C70.6142 21.9253 70.2029 21.9826 69.6936 21.9826C69.0675 21.9826 68.5782 21.7963 68.225 21.4244C67.8733 21.0517 67.6963 20.4267 67.6963 19.5488V16.0419H66.6553V14.8819H67.6963V13.6081L69.2534 13.1499V14.8819H71.0008V16.0434Z" fill="white"/>
<path d="M78.8855 18.3046C78.8855 19.374 78.5717 20.252 77.9456 20.9385C77.289 21.6454 76.4175 21.9978 75.3311 21.9978C74.2842 21.9978 73.4506 21.6592 72.8289 20.982C72.2073 20.3049 71.8965 19.4501 71.8965 18.4199C71.8965 17.3418 72.2162 16.4587 72.8579 15.7722C73.4982 15.0849 74.3622 14.7412 75.4486 14.7412C76.4956 14.7412 77.3381 15.0798 77.9739 15.7577C78.5821 16.4152 78.8855 17.2642 78.8855 18.3046ZM77.2407 18.3546C77.2407 17.713 77.1001 17.1627 76.8153 16.7038C76.483 16.1484 76.0078 15.8715 75.3921 15.8715C74.7548 15.8715 74.2708 16.1492 73.9384 16.7038C73.6536 17.1634 73.5131 17.7224 73.5131 18.3836C73.5131 19.0252 73.6536 19.5755 73.9384 20.0337C74.2812 20.5891 74.7601 20.866 75.378 20.866C75.9833 20.866 76.4584 20.5833 76.8012 20.0192C77.0934 19.5516 77.2407 18.9955 77.2407 18.3546Z" fill="white"/>
<path d="M84.0383 16.2429C83.8814 16.2147 83.7141 16.2002 83.5386 16.2002C82.9809 16.2002 82.5496 16.4053 82.2463 16.8164C81.9823 17.1789 81.8499 17.6371 81.8499 18.1903V21.8407H80.2653L80.2802 17.0745C80.2802 16.2727 80.2601 15.5426 80.2207 14.8843H81.6016L81.6596 16.2154H81.7034C81.8707 15.7579 82.1347 15.3896 82.4961 15.1134C82.8493 14.8647 83.2308 14.7407 83.642 14.7407C83.7885 14.7407 83.9208 14.7509 84.0383 14.769V16.2429Z" fill="white"/>
<path d="M91.1285 18.0331C91.1285 18.31 91.1099 18.5435 91.0705 18.7341H86.3144C86.333 19.4214 86.5628 19.9471 87.0045 20.3096C87.4053 20.6336 87.9236 20.796 88.5601 20.796C89.2643 20.796 89.9067 20.6866 90.4845 20.4669L90.7329 21.5399C90.0577 21.827 89.2606 21.9698 88.3407 21.9698C87.2343 21.9698 86.3658 21.6523 85.7337 21.0179C85.1031 20.3835 84.7871 19.5316 84.7871 18.463C84.7871 17.4139 85.0808 16.5403 85.669 15.8436C86.2847 15.0997 87.1168 14.7278 88.1638 14.7278C89.1921 14.7278 89.9707 15.0997 90.4994 15.8436C90.918 16.4344 91.1285 17.1652 91.1285 18.0331ZM89.6167 17.6321C89.6271 17.1739 89.5238 16.7781 89.3089 16.4439C89.0345 16.0139 88.6129 15.7993 88.0455 15.7993C87.5272 15.7993 87.1056 16.0089 86.7837 16.4294C86.5197 16.7636 86.3628 17.1645 86.3144 17.6314H89.6167V17.6321Z" fill="white"/>
<path d="M36.3396 7.42665C36.3396 8.03203 36.154 8.51687 35.7883 8.87847C35.3678 9.30713 34.8201 9.52281 34.149 9.52281C33.5076 9.52281 32.96 9.3035 32.5107 8.87122C32.0606 8.43259 31.8359 7.89428 31.8359 7.24993C31.8359 6.60559 32.0606 6.06727 32.5107 5.63227C32.96 5.19636 33.5076 4.97705 34.149 4.97705C34.4683 4.97705 34.7728 5.04139 35.0633 5.16102C35.3529 5.28155 35.5887 5.44468 35.7595 5.64586L35.3715 6.0283C35.0735 5.68483 34.6679 5.51537 34.149 5.51537C33.6812 5.51537 33.2756 5.67487 32.9312 5.99658C32.5906 6.31921 32.4198 6.73699 32.4198 7.24993C32.4198 7.76287 32.5906 8.18428 32.9312 8.5069C33.2756 8.825 33.6812 8.98812 34.149 8.98812C34.6456 8.98812 35.0633 8.825 35.3928 8.50328C35.6101 8.29031 35.7335 7.99668 35.766 7.6215H34.149V7.09768H36.3062C36.3322 7.21096 36.3396 7.32062 36.3396 7.42665Z" fill="white" stroke="white" stroke-width="0.16" stroke-miterlimit="10"/>
<path d="M39.762 5.61044H37.7357V6.98795H39.5625V7.51176H37.7357V8.88926H39.762V9.42305H37.1621V5.07666H39.762V5.61044Z" fill="white" stroke="white" stroke-width="0.16" stroke-miterlimit="10"/>
<path d="M42.1769 9.42305H41.6032V5.61044H40.3604V5.07666H43.4207V5.61044H42.1769V9.42305Z" fill="white" stroke="white" stroke-width="0.16" stroke-miterlimit="10"/>
<path d="M45.6357 9.42305V5.07666H46.2085V9.42305H45.6357Z" fill="white" stroke="white" stroke-width="0.16" stroke-miterlimit="10"/>
<path d="M48.7472 9.42305H48.1782V5.61044H46.9307V5.07666H49.9947V5.61044H48.7472V9.42305Z" fill="white" stroke="white" stroke-width="0.16" stroke-miterlimit="10"/>
<path d="M55.7878 8.86372C55.3488 9.30326 54.8048 9.52257 54.156 9.52257C53.5035 9.52257 52.9595 9.30326 52.5205 8.86372C52.0824 8.4251 51.8643 7.88678 51.8643 7.24969C51.8643 6.61259 52.0824 6.07428 52.5205 5.63565C52.9595 5.19612 53.5035 4.97681 54.156 4.97681C54.8011 4.97681 55.3451 5.19612 55.7841 5.63928C56.2259 6.08153 56.4441 6.61622 56.4441 7.24969C56.4441 7.88678 56.2259 8.4251 55.7878 8.86372ZM52.9447 8.49941C53.2751 8.82475 53.6771 8.98788 54.156 8.98788C54.6313 8.98788 55.0369 8.82475 55.3636 8.49941C55.6931 8.17406 55.8602 7.75628 55.8602 7.24969C55.8602 6.74309 55.6931 6.32531 55.3636 5.99997C55.0369 5.67462 54.6313 5.5115 54.156 5.5115C53.6771 5.5115 53.2751 5.67462 52.9447 5.99997C52.6152 6.32531 52.4481 6.74309 52.4481 7.24969C52.4481 7.75628 52.6152 8.17406 52.9447 8.49941Z" fill="white" stroke="white" stroke-width="0.16" stroke-miterlimit="10"/>
<path d="M57.248 9.42305V5.07666H57.9442L60.1088 8.45698H60.1339L60.1088 7.62142V5.07666H60.6815V9.42305H60.0837L57.817 5.87597H57.792L57.817 6.71516V9.42305H57.248Z" fill="white" stroke="white" stroke-width="0.16" stroke-miterlimit="10"/>
</svg>
