<svg width="101" height="29" viewBox="0 0 101 29" fill="none" xmlns="http://www.w3.org/2000/svg">
<path d="M96.663 29H3.84175C1.80062 29 0.128906 27.3678 0.128906 25.375V3.62493C0.128906 1.63208 1.80062 -8.11403e-05 3.84175 -8.11403e-05H96.663C98.7041 -8.11403e-05 100.376 1.63208 100.376 3.62493V25.375C100.376 27.3678 98.7041 29 96.663 29Z" fill="black"/>
<path d="M96.663 0.580826C98.382 0.580826 99.7808 1.94655 99.7808 3.62493V25.375C99.7808 27.0534 98.382 28.4191 96.663 28.4191H3.84175C2.12271 28.4191 0.72389 27.0534 0.72389 25.375V3.62493C0.72389 1.94655 2.12271 0.580826 3.84175 0.580826H96.663ZM96.663 -8.11403e-05H3.84175C1.80062 -8.11403e-05 0.128906 1.63208 0.128906 3.62493V25.375C0.128906 27.3678 1.80062 29 3.84175 29H96.663C98.7041 29 100.376 27.3678 100.376 25.375V3.62493C100.376 1.63208 98.7041 -8.11403e-05 96.663 -8.11403e-05Z" fill="#A6A6A6"/>
<path d="M35.3396 7.42665C35.3396 8.03203 35.154 8.51687 34.7883 8.87847C34.3678 9.30713 33.8201 9.52281 33.149 9.52281C32.5076 9.52281 31.96 9.3035 31.5107 8.87122C31.0606 8.43259 30.8359 7.89428 30.8359 7.24993C30.8359 6.60559 31.0606 6.06727 31.5107 5.63227C31.96 5.19636 32.5076 4.97705 33.149 4.97705C33.4683 4.97705 33.7728 5.04139 34.0633 5.16102C34.3529 5.28155 34.5887 5.44468 34.7595 5.64586L34.3715 6.0283C34.0735 5.68483 33.6679 5.51537 33.149 5.51537C32.6812 5.51537 32.2756 5.67487 31.9312 5.99658C31.5906 6.31921 31.4198 6.73699 31.4198 7.24993C31.4198 7.76287 31.5906 8.18428 31.9312 8.5069C32.2756 8.825 32.6812 8.98812 33.149 8.98812C33.6456 8.98812 34.0633 8.825 34.3928 8.50328C34.6101 8.29031 34.7335 7.99668 34.766 7.6215H33.149V7.09768H35.3062C35.3322 7.21096 35.3396 7.32062 35.3396 7.42665Z" fill="white" stroke="white" stroke-width="0.16" stroke-miterlimit="10"/>
<path d="M38.762 5.61044H36.7357V6.98795H38.5625V7.51176H36.7357V8.88926H38.762V9.42305H36.1621V5.07666H38.762V5.61044Z" fill="white" stroke="white" stroke-width="0.16" stroke-miterlimit="10"/>
<path d="M41.1769 9.42305H40.6032V5.61044H39.3604V5.07666H42.4207V5.61044H41.1769V9.42305Z" fill="white" stroke="white" stroke-width="0.16" stroke-miterlimit="10"/>
<path d="M44.6357 9.42305V5.07666H45.2085V9.42305H44.6357Z" fill="white" stroke="white" stroke-width="0.16" stroke-miterlimit="10"/>
<path d="M47.7472 9.42305H47.1782V5.61044H45.9307V5.07666H48.9947V5.61044H47.7472V9.42305Z" fill="white" stroke="white" stroke-width="0.16" stroke-miterlimit="10"/>
<path d="M54.7878 8.86372C54.3488 9.30326 53.8048 9.52257 53.156 9.52257C52.5035 9.52257 51.9595 9.30326 51.5205 8.86372C51.0824 8.4251 50.8643 7.88678 50.8643 7.24969C50.8643 6.61259 51.0824 6.07428 51.5205 5.63565C51.9595 5.19612 52.5035 4.97681 53.156 4.97681C53.8011 4.97681 54.3451 5.19612 54.7841 5.63928C55.2259 6.08153 55.4441 6.61622 55.4441 7.24969C55.4441 7.88678 55.2259 8.4251 54.7878 8.86372ZM51.9447 8.49941C52.2751 8.82475 52.6771 8.98788 53.156 8.98788C53.6313 8.98788 54.0369 8.82475 54.3636 8.49941C54.6931 8.17406 54.8602 7.75628 54.8602 7.24969C54.8602 6.74309 54.6931 6.32531 54.3636 5.99997C54.0369 5.67462 53.6313 5.5115 53.156 5.5115C52.6771 5.5115 52.2751 5.67462 51.9447 5.99997C51.6152 6.32531 51.4481 6.74309 51.4481 7.24969C51.4481 7.75628 51.6152 8.17406 51.9447 8.49941Z" fill="white" stroke="white" stroke-width="0.16" stroke-miterlimit="10"/>
<path d="M56.248 9.42305V5.07666H56.9442L59.1088 8.45698H59.1339L59.1088 7.62142V5.07666H59.6815V9.42305H59.0837L56.817 5.87597H56.792L56.817 6.71516V9.42305H56.248Z" fill="white" stroke="white" stroke-width="0.16" stroke-miterlimit="10"/>
<path d="M50.7244 15.7707C48.9803 15.7707 47.5555 17.0666 47.5555 18.8546C47.5555 20.6282 48.9803 21.9377 50.7244 21.9377C52.4722 21.9377 53.897 20.6282 53.897 18.8546C53.897 17.0666 52.4722 15.7707 50.7244 15.7707ZM50.7244 20.7233C49.7674 20.7233 48.9441 19.9521 48.9441 18.8546C48.9441 17.7427 49.7674 16.985 50.7244 16.985C51.6814 16.985 52.5084 17.7427 52.5084 18.8546C52.5084 19.9521 51.6814 20.7233 50.7244 20.7233ZM43.8102 15.7707C42.0623 15.7707 40.6412 17.0666 40.6412 18.8546C40.6412 20.6282 42.0623 21.9377 43.8102 21.9377C45.5571 21.9377 46.9791 20.6282 46.9791 18.8546C46.9791 17.0666 45.5571 15.7707 43.8102 15.7707ZM43.8102 20.7233C42.8522 20.7233 42.0261 19.9521 42.0261 18.8546C42.0261 17.7427 42.8522 16.985 43.8102 16.985C44.7671 16.985 45.5905 17.7427 45.5905 18.8546C45.5905 19.9521 44.7671 20.7233 43.8102 20.7233ZM35.5825 16.7159V18.0263H38.7876C38.6939 18.7586 38.4432 19.2969 38.059 19.6721C37.5911 20.1252 36.8625 20.6282 35.5825 20.6282C33.61 20.6282 32.0655 19.0739 32.0655 17.1482C32.0655 15.2224 33.61 13.6681 35.5825 13.6681C36.649 13.6681 37.425 14.0751 37.9977 14.6025L38.9435 13.679C38.1425 12.9323 37.0769 12.3586 35.5825 12.3586C32.8777 12.3586 30.6045 14.5073 30.6045 17.1482C30.6045 19.789 32.8777 21.9377 35.5825 21.9377C37.0444 21.9377 38.1425 21.4701 39.0057 20.5928C39.8903 19.7292 40.166 18.5148 40.166 17.5342C40.166 17.2297 40.14 16.9497 40.0936 16.7159H35.5825ZM69.2265 17.7318C68.9656 17.0421 68.1609 15.7707 66.5217 15.7707C64.8973 15.7707 63.5449 17.0204 63.5449 18.8546C63.5449 20.5819 64.8834 21.9377 66.6776 21.9377C68.1284 21.9377 68.9656 21.074 69.31 20.5711L68.2333 19.8705C67.8741 20.3835 67.3849 20.7233 66.6776 20.7233C65.9749 20.7233 65.4709 20.4089 65.1479 19.789L69.3722 18.0825L69.2265 17.7318ZM64.9196 18.7586C64.8834 17.5696 65.8654 16.9606 66.569 16.9606C67.1204 16.9606 67.5882 17.2297 67.7441 17.6149L64.9196 18.7586ZM61.4861 21.7501H62.8747V12.6876H61.4861V21.7501ZM59.212 16.4576H59.1656C58.8537 16.0969 58.2587 15.7707 57.505 15.7707C55.9233 15.7707 54.4772 17.1264 54.4772 18.8646C54.4772 20.5928 55.9233 21.9377 57.505 21.9377C58.2587 21.9377 58.8537 21.6087 59.1656 21.2372H59.212V21.6794C59.212 22.8585 58.5669 23.4919 57.5263 23.4919C56.678 23.4919 56.1517 22.8938 55.9345 22.3908L54.7269 22.8829C55.0749 23.7004 55.9967 24.7063 57.5263 24.7063C59.1544 24.7063 60.5282 23.771 60.5282 21.4954V15.9582H59.212V16.4576ZM57.6238 20.7233C56.6668 20.7233 55.8658 19.9412 55.8658 18.8646C55.8658 17.778 56.6668 16.985 57.6238 16.985C58.5669 16.985 59.3104 17.778 59.3104 18.8646C59.3104 19.9412 58.5669 20.7233 57.6238 20.7233ZM75.7277 12.6876H72.4065V21.7501H73.7914V18.3163H75.7277C77.2657 18.3163 78.774 17.2297 78.774 15.5015C78.774 13.7742 77.262 12.6876 75.7277 12.6876ZM75.7639 17.0557H73.7914V13.9482H75.7639C76.7979 13.9482 77.3882 14.7865 77.3882 15.5015C77.3882 16.2029 76.7979 17.0557 75.7639 17.0557ZM84.3248 15.7534C83.3241 15.7534 82.2836 16.1848 81.8557 17.1409L83.0847 17.6439C83.3492 17.1409 83.8356 16.9778 84.3498 16.9778C85.0683 16.9778 85.7969 17.3992 85.808 18.1432V18.2384C85.5574 18.097 85.0209 17.8877 84.361 17.8877C83.0373 17.8877 81.6886 18.5991 81.6886 19.9267C81.6886 21.1411 82.7728 21.9232 83.9915 21.9232C84.9235 21.9232 85.4377 21.5127 85.7607 21.0351H85.808V21.7356H87.1456V18.2592C87.1456 16.6524 85.9166 15.7534 84.3248 15.7534ZM84.1577 20.7197C83.7047 20.7197 83.0735 20.5004 83.0735 19.9521C83.0735 19.2507 83.8607 18.9815 84.542 18.9815C85.1518 18.9815 85.4377 19.1129 85.808 19.286C85.6994 20.1252 84.9597 20.7197 84.1577 20.7197ZM92.0187 15.9519L90.4268 19.8805H90.3795L88.7338 15.9519H87.2403L89.713 21.442L88.3021 24.497H89.7492L93.5595 15.9519H92.0187ZM79.5352 21.7501H80.9238V12.6876H79.5352V21.7501Z" fill="white"/>
<path d="M7.87757 5.46573C7.65944 5.68867 7.5332 6.03576 7.5332 6.48526V22.5187C7.5332 22.9682 7.65944 23.3153 7.87757 23.5382L7.93141 23.5872L17.1337 14.6062V14.3941L7.93141 5.41317L7.87757 5.46573Z" fill="url(#paint0_linear_2531_3530)"/>
<path d="M20.1978 17.6013L17.1338 14.6062V14.3941L20.2015 11.3989L20.2702 11.4379L23.9032 13.4561C24.9401 14.0289 24.9401 14.9714 23.9032 15.5477L20.2702 17.5623L20.1978 17.6013Z" fill="url(#paint1_linear_2531_3530)"/>
<path d="M20.2705 17.5623L17.1341 14.5L7.87793 23.5381C8.2223 23.8915 8.78386 23.9341 9.42247 23.5807L20.2705 17.5623Z" fill="url(#paint2_linear_2531_3530)"/>
<path d="M20.2705 11.4375L9.42247 5.41911C8.78386 5.06929 8.2223 5.11189 7.87793 5.46532L17.1341 14.4998L20.2705 11.4375Z" fill="url(#paint3_linear_2531_3530)"/>
<defs>
<linearGradient id="paint0_linear_2531_3530" x1="16.3166" y1="22.6857" x2="4.15286" y2="10.2271" gradientUnits="userSpaceOnUse">
<stop stop-color="#00A0FF"/>
<stop offset="0.0066" stop-color="#00A1FF"/>
<stop offset="0.2601" stop-color="#00BEFF"/>
<stop offset="0.5122" stop-color="#00D2FF"/>
<stop offset="0.7604" stop-color="#00DFFF"/>
<stop offset="1" stop-color="#00E3FF"/>
</linearGradient>
<linearGradient id="paint1_linear_2531_3530" x1="25.2533" y1="14.4991" x2="7.28546" y2="14.4991" gradientUnits="userSpaceOnUse">
<stop stop-color="#FFE000"/>
<stop offset="0.4087" stop-color="#FFBD00"/>
<stop offset="0.7754" stop-color="#FFA500"/>
<stop offset="1" stop-color="#FF9C00"/>
</linearGradient>
<linearGradient id="paint2_linear_2531_3530" x1="18.565" y1="12.8354" x2="2.06991" y2="-4.05941" gradientUnits="userSpaceOnUse">
<stop stop-color="#FF3A44"/>
<stop offset="1" stop-color="#C31162"/>
</linearGradient>
<linearGradient id="paint3_linear_2531_3530" x1="5.54797" y1="28.8721" x2="12.9138" y2="21.3278" gradientUnits="userSpaceOnUse">
<stop stop-color="#32A071"/>
<stop offset="0.0685" stop-color="#2DA771"/>
<stop offset="0.4762" stop-color="#15CF74"/>
<stop offset="0.8009" stop-color="#06E775"/>
<stop offset="1" stop-color="#00F076"/>
</linearGradient>
</defs>
</svg>
